<svg xmlns="http://www.w3.org/2000/svg" width="32.124" height="22.215" viewBox="0 0 32.124 22.215">
    <g fill="#7f8ff7">
        <path d="M351.571 278.488a8.218 8.218 0 0 0-2.786.484c-.168-1.644.522-3.528 3.125-6.227-4.978 1.625-8.575 8.272-8.575 13.793v.181a8.236 8.236 0 1 0 8.236-8.236z" transform="rotate(180 136.062 147.48) translate(-87.683)"/>
        <path d="M264.293 286.725v-.085-.1a16.706 16.706 0 0 1 .674-4.558 8.238 8.238 0 0 0-9.517-3.008c-.167-1.644.522-3.528 3.125-6.227-4.975 1.624-8.575 8.271-8.575 13.792v.181a8.237 8.237 0 0 0 15.29 4.253 9.535 9.535 0 0 1-.997-4.248z" opacity="0.426" transform="rotate(180 136.062 147.48) translate(-10)"/>
    </g>
</svg>
